<?xml version="1.0" encoding="UTF-8" standalone="no"?>
<svg
   xmlns:dc="http://purl.org/dc/elements/1.1/"
   xmlns:cc="http://creativecommons.org/ns#"
   xmlns:rdf="http://www.w3.org/1999/02/22-rdf-syntax-ns#"
   xmlns:svg="http://www.w3.org/2000/svg"
   xmlns="http://www.w3.org/2000/svg"
   xmlns:sodipodi="http://sodipodi.sourceforge.net/DTD/sodipodi-0.dtd"
   xmlns:inkscape="http://www.inkscape.org/namespaces/inkscape"
   width="405.42496"
   height="404.32736"
   viewBox="0 0 405.42496 404.32736"
   version="1.1"
   id="svg2216"
   inkscape:version="1.0.1 (3bc2e813f5, 2020-09-07)"
   sodipodi:docname="texas-hometown-heart-dddddd.svg">
  <defs
     id="defs2210" />
  <sodipodi:namedview
     id="base"
     pagecolor="#ffffff"
     bordercolor="#666666"
     borderopacity="1.0"
     inkscape:pageopacity="0.0"
     inkscape:pageshadow="2"
     inkscape:zoom="0.9899495"
     inkscape:cx="293.67634"
     inkscape:cy="263.40482"
     inkscape:document-units="px"
     inkscape:current-layer="layer1"
     showgrid="false"
     units="px"
     inkscape:window-width="1366"
     inkscape:window-height="705"
     inkscape:window-x="-8"
     inkscape:window-y="-8"
     inkscape:window-maximized="1"
     fit-margin-top="10"
     fit-margin-left="10"
     fit-margin-right="10"
     fit-margin-bottom="20"
     inkscape:showpageshadow="false"
     showborder="true"
     inkscape:document-rotation="0"
     lock-margins="false" />
  <metadata
     id="metadata2213">
    <rdf:RDF>
      <cc:Work
         rdf:about="">
        <dc:format>image/svg+xml</dc:format>
        <dc:type
           rdf:resource="http://purl.org/dc/dcmitype/StillImage" />
        <dc:title></dc:title>
      </cc:Work>
    </rdf:RDF>
  </metadata>
  <g
     inkscape:label="Layer 1"
     inkscape:groupmode="layer"
     id="layer1"
     transform="translate(3.0337061,-120.07117)">
    <path
       inkscape:connector-curvature="0"
       id="path829"
       d="m 275.84466,503.85844 c -0.22054,-0.0962 -1.22739,-0.79449 -2.23762,-1.55209 -4.75228,-3.56385 -6.41792,-4.08312 -13.09729,-4.08312 -2.29193,0 -3.67456,-0.0923 -4.46449,-0.29803 -1.41174,-0.36773 -3.48507,-1.39883 -5.40301,-2.68699 -2.19756,-1.47599 -3.92716,-2.3733 -5.7858,-3.00168 -1.52469,-0.51546 -4.56402,-1.99954 -8.59482,-4.19682 -0.82675,-0.45066 -2.02833,-0.95599 -2.67019,-1.12298 -1.81679,-0.47256 -4.44046,-2.49234 -5.71427,-4.39897 -0.59505,-0.89068 -1.56149,-3.30182 -2.55117,-6.36473 -1.10461,-3.41872 -1.76692,-4.75425 -4.21219,-8.49391 -1.54271,-2.35931 -2.0529,-3.78125 -2.4809,-6.91451 -0.2033,-1.48811 -0.50587,-3.07797 -0.67246,-3.533 -0.52972,-1.44692 -1.1616,-5.01572 -1.31814,-7.44479 -0.11999,-1.86061 -0.24814,-2.53805 -0.61556,-3.25205 -0.60331,-1.1725 -3.31034,-3.9557 -5.21853,-5.36536 -2.61413,-1.93122 -3.85231,-3.52576 -6.41649,-8.26323 -2.15383,-3.97931 -2.51498,-4.48821 -5.33734,-7.5205 -5.10537,-5.48513 -5.65041,-6.22327 -6.40699,-8.67694 -0.63814,-2.06957 -2.12099,-5.68195 -2.88808,-7.03564 -0.86678,-1.52963 -4.40519,-8.90058 -5.44348,-11.33946 -0.3285,-0.77163 -0.87063,-2.16956 -1.20473,-3.10651 -0.80457,-2.2564 -2.16252,-5.14241 -2.98548,-6.34501 -0.95458,-1.39494 -6.55508,-7.04062 -8.77954,-8.85039 -3.07911,-2.50504 -6.59018,-5.84759 -7.73647,-7.36517 -0.58836,-0.77887 -1.62426,-1.92959 -2.30204,-2.55707 -2.15084,-1.99128 -3.08618,-2.3083 -7.51899,-2.54845 -1.87392,-0.10152 -4.21885,-0.32003 -5.21093,-0.48561 -0.99206,-0.16565 -2.79586,-0.30341 -4.00841,-0.30635 -2.10697,-0.005 -4.68918,-0.47233 -6.5768,-1.19009 -1.4733,-0.56018 -4.01366,-0.0627 -7.09041,1.38865 -1.16872,0.55124 -2.26944,1.00318 -2.4461,1.00425 -0.82167,0.005 -2.58245,1.10719 -4.08356,2.55615 -1.74555,1.68495 -2.54034,3.06638 -3.72663,6.47728 -0.32272,0.92792 -0.82327,2.31844 -1.11233,3.09005 -0.28907,0.77163 -0.65317,1.94409 -0.80912,2.60548 -0.78772,3.34077 -6.03354,10.17149 -8.86359,11.54151 -2.0466,0.99072 -4.5264,0.61981 -7.11729,-1.06463 -4.59661,-2.98845 -13.064456,-7.62844 -16.328085,-8.94702 -2.771996,-1.11996 -3.461407,-1.55508 -5.980625,-3.77458 -2.098381,-1.84873 -5.431717,-4.54077 -7.391801,-5.96969 -1.942347,-1.41603 -3.604872,-3.70531 -5.532933,-7.61882 -2.263268,-4.5939 -2.792632,-6.29886 -3.008049,-9.68819 -0.265935,-4.18419 -0.503163,-4.94674 -2.735161,-8.79191 -0.717067,-1.23531 -1.617746,-3.12929 -2.001511,-4.20884 -1.255672,-3.5322 -2.118237,-5.07358 -3.881879,-6.93674 -2.102162,-2.22079 -3.876763,-3.63647 -6.213207,-4.95655 -4.846187,-2.73807 -5.64064,-3.3664 -10.218546,-8.08143 -2.368379,-2.43934 -4.936933,-5.02138 -5.707896,-5.73788 -0.770964,-0.7165 -2.44077,-2.3426 -3.710678,-3.61357 -2.002227,-2.00386 -5.027562,-4.40325 -5.551983,-4.40325 -0.09419,0 -0.503061,-0.2254 -0.908612,-0.50105 -0.405548,-0.27559 -0.854884,-0.50305 -0.99852,-0.50551 -0.143645,-0.002 -0.486632,-0.18726 -0.762209,-0.41084 -0.275581,-0.22346 -0.830567,-0.62299 -1.233305,-0.88774 -0.536252,-0.35253 -0.819099,-0.74283 -1.056704,-1.45822 -0.181511,-0.5465 -0.631493,-1.27441 -1.021426,-1.65235 -0.383339,-0.37155 -0.696977,-0.79612 -0.696977,-0.94351 0,-0.73204 -1.184418,-2.43229 -2.897357,-4.15919 -1.596844,-1.6099 -1.991261,-1.90766 -2.526813,-1.90766 -0.461719,0 -0.778476,-0.1688 -1.162684,-0.61939 -0.646626,-0.75842 -1.052058,-1.15203 -2.2971395,-2.23002 -1.4709475,-1.27357 -1.9009765,-2.40609 -1.2436149,-3.27522 0.3381803,-0.44711 0.4025703,-1.40862 0.1065801,-1.59156 -0.3157931,-0.19528 -0.2339271,-1.02541 0.1309661,-1.32829 0.2784877,-0.23123 8.3012882,-0.28484 50.2554332,-0.33619 l 49.924046,-0.0612 0.80168,-0.47082 c 1.03232,-0.60625 2.21951,-1.79739 2.80476,-2.81407 l 0.46148,-0.80168 0.11627,-22.54731 c 0.0639,-12.40103 0.20391,-26.42544 0.31103,-31.16538 0.10711,-4.73994 0.20852,-29.14582 0.22533,-54.23529 0.0168,-25.08946 0.0944,-45.72044 0.17238,-45.84662 0.10594,-0.17148 11.43836,-0.21666 44.82345,-0.17877 l 44.68166,0.0505 0.10031,32.06727 0.10031,32.06728 0.62965,1.20386 c 0.77664,1.48493 2.26188,3.48226 3.15321,4.24039 3.78826,3.22215 4.51688,3.66645 6.66337,4.06326 1.62321,0.30006 2.85803,0.26491 3.96692,-0.11295 1.55275,-0.52906 3.58513,-0.30412 5.41261,0.59906 1.24374,0.61469 1.70785,0.99765 2.85145,2.3528 1.27874,1.51532 3.10114,3.08458 4.27092,3.6777 0.28023,0.14209 1.36628,0.4458 2.41348,0.67496 1.0472,0.22905 2.76249,0.68191 3.81175,1.00615 1.10774,0.3423 2.66263,0.64949 3.70781,0.73255 0.99001,0.0787 2.64414,0.35907 3.67584,0.62311 2.48248,0.63533 5.47452,0.65304 8.50073,0.0503 l 2.15934,-0.43006 2.65075,1.59579 c 2.4236,1.45901 2.72345,1.7052 3.49875,2.87268 0.98776,1.48745 2.13197,2.71878 2.90195,3.12298 0.29878,0.1569 1.12397,0.41983 1.83375,0.58444 l 1.29047,0.29929 1.53676,-0.72979 c 1.32929,-0.63127 1.78675,-0.74288 3.38841,-0.82665 2.00967,-0.10517 2.50067,0.0393 3.93367,1.157 1.3683,1.06724 2.29174,1.399 4.25466,1.52858 1.30142,0.086 2.2485,0.27782 3.16091,0.6405 2.61595,1.03986 5.20404,0.88252 7.35866,-0.4474 2.08227,-1.28523 3.02682,-1.38294 6.01383,-0.62199 1.07783,0.27456 2.23192,0.50003 2.56468,0.50105 0.33275,0.001 1.68558,0.27272 3.00631,0.60383 1.71048,0.42882 2.62146,0.76935 3.16656,1.18365 0.42088,0.31988 1.11348,0.84625 1.53907,1.16971 0.93998,0.71436 3.60385,1.35714 4.79231,1.15635 0.42858,-0.0724 1.45088,-0.51442 2.27177,-0.98223 0.82092,-0.46783 1.79962,-0.97058 2.17491,-1.11722 0.37529,-0.1467 1.26856,-0.55582 1.98506,-0.90923 1.09379,-0.53953 1.62263,-0.66454 3.29699,-0.77948 2.91915,-0.20038 6.0602,-0.70559 7.21392,-1.16033 1.50344,-0.59261 4.01099,-0.69049 6.32441,-0.24692 2.66203,0.51043 3.7937,0.47174 5.9124,-0.20209 1.41994,-0.45168 2.18766,-0.57502 3.60757,-0.57961 2.23553,-0.007 2.87071,0.25312 5.61177,2.30022 3.30619,2.46917 6.21074,4.27799 7.92404,4.93476 2.00673,0.76928 5.08387,2.17472 6.80805,3.1095 2.42802,1.31637 5.20746,2.0311 7.28169,1.87244 1.90552,-0.14573 2.57228,0.12946 4.10537,1.6952 1.76634,1.80382 1.59863,-0.60936 1.83112,26.3481 0.22905,26.57119 0.16614,25.42715 1.53912,27.94446 0.39081,0.7165 1.13153,1.88895 1.64609,2.60545 2.60893,3.63286 3.04217,4.59436 3.52188,7.81641 0.45354,3.04618 1.1734,5.07822 2.91101,8.21723 0.33557,0.60628 0.97629,2.04931 1.42374,3.20673 1.047,2.70815 2.12208,5.25509 2.73596,6.48166 1.01956,2.03704 1.32421,5.99041 0.75556,9.80383 -0.41989,2.81567 -1.08555,4.88658 -2.47179,7.68972 -1.32757,2.68454 -1.64536,3.58104 -2.2258,6.27889 -0.51497,2.39363 -0.55327,6.58848 -0.0848,9.27875 0.53821,3.09024 0.13383,5.47068 -1.47092,8.65987 -0.39059,0.77625 -1.07897,1.95247 -1.5297,2.61386 -1.17932,1.73047 -1.51599,2.8559 -1.52896,5.11072 -0.0122,2.10532 -0.30672,3.02242 -1.42399,4.4331 -0.80642,1.01819 -1.07333,1.14719 -3.32567,1.60732 -2.22657,0.45486 -3.33048,0.88407 -9.15221,3.55848 -4.90657,2.25402 -4.87528,2.23189 -9.54073,6.75615 -2.2394,2.17165 -3.58829,3.28037 -5.82095,4.78454 -3.56842,2.40402 -3.43276,2.28834 -8.22303,7.01444 -4.05687,4.00255 -6.36738,5.78177 -9.67394,7.44952 -0.74926,0.37791 -3.04909,1.69098 -5.11074,2.91791 -2.06162,1.22693 -5.95806,3.36966 -8.65873,4.76158 -5.67164,2.92316 -6.92515,3.73834 -10.62227,6.90789 -1.48814,1.27577 -4.16692,3.31797 -5.95286,4.53815 -5.21781,3.56494 -9.31706,7.33804 -11.72514,10.79222 -1.43968,2.0651 -5.48324,8.67107 -6.30245,10.29629 -2.06913,4.10496 -4.12153,9.81972 -4.87349,13.56996 -0.85803,4.27935 -0.89182,8.87684 -0.0991,13.49082 0.39251,2.28445 0.82983,4.03005 2.19356,8.75584 1.32842,4.60329 2.3437,9.12299 3.01601,13.42614 0.78476,5.02289 0.77259,5.24207 -0.38784,6.9876 -1.13328,1.70467 -2.87059,3.03726 -5.29221,4.05927 -1.27791,0.53931 -1.84987,0.66139 -3.34524,0.71407 -0.99209,0.035 -1.98417,-0.0146 -2.20464,-0.111 z"
       style="fill:#ffffff;fill-opacity:1;stroke:#000000;stroke-width:0.835439;stroke-miterlimit:4;stroke-dasharray:none;stroke-opacity:1"
       sodipodi:nodetypes="ccscccccscccccccsccccccccccccccccccccscscsscccscscsccccccscsccccccccccsccccccccccccccccccccccccccccccccccccccccscccccccccccccccccccccccsccccccccscscccccccccc" />
  </g>
</svg>
