<?xml version="1.0" encoding="UTF-8" standalone="no"?>
<svg
   xmlns:dc="http://purl.org/dc/elements/1.1/"
   xmlns:cc="http://creativecommons.org/ns#"
   xmlns:rdf="http://www.w3.org/1999/02/22-rdf-syntax-ns#"
   xmlns:svg="http://www.w3.org/2000/svg"
   xmlns="http://www.w3.org/2000/svg"
   xmlns:sodipodi="http://sodipodi.sourceforge.net/DTD/sodipodi-0.dtd"
   xmlns:inkscape="http://www.inkscape.org/namespaces/inkscape"
   width="468.4809"
   height="414.76224"
   version="1.1"
   viewBox="0 0 468.4809 414.76223"
   id="svg971"
   sodipodi:docname="florida-hometown-heart-dddddd.svg"
   inkscape:version="1.0.1 (3bc2e813f5, 2020-09-07)">
  <defs
     id="defs975" />
  <sodipodi:namedview
     pagecolor="#ffffff"
     bordercolor="#666666"
     borderopacity="1"
     objecttolerance="10"
     gridtolerance="10"
     guidetolerance="10"
     inkscape:pageopacity="0"
     inkscape:pageshadow="2"
     inkscape:window-width="1366"
     inkscape:window-height="705"
     id="namedview973"
     showgrid="false"
     inkscape:showpageshadow="false"
     inkscape:zoom="0.73324017"
     inkscape:cx="350.88329"
     inkscape:cy="230.62247"
     inkscape:window-x="-8"
     inkscape:window-y="-8"
     inkscape:window-maximized="1"
     inkscape:current-layer="g969"
     fit-margin-top="10"
     fit-margin-left="10"
     fit-margin-right="10"
     fit-margin-bottom="20"
     inkscape:document-rotation="0"
     lock-margins="false" />
  <metadata
     id="metadata961">
    <rdf:RDF>
      <cc:Work
         rdf:about="">
        <dc:format>image/svg+xml</dc:format>
        <dc:type
           rdf:resource="http://purl.org/dc/dcmitype/StillImage" />
        <dc:title></dc:title>
      </cc:Work>
    </rdf:RDF>
  </metadata>
  <g
     transform="translate(141.37258,0.91922032)"
     id="g969">
    <path
       d="m 222.15498,393.01514 -2.3387,-0.2759 -0.0796,-0.83416 c -0.10192,-1.06742 0.11031,-1.90873 0.52122,-2.06643 0.38621,-0.14814 6.45462,0.45863 6.81499,0.6815 0.27406,0.16942 0.34306,1.81793 0.10243,2.44513 -0.1765,0.46021 -1.43591,0.47271 -5.02022,0.0499 z m 8.96224,-3.94044 c -0.072,-0.18753 -0.0961,-0.82459 -0.0538,-1.41553 l 0.077,-1.07441 3.69275,-0.51523 c 6.22374,-0.86833 6.24501,-0.86964 6.48666,-0.39607 0.40481,0.79321 0.50817,1.95406 0.20934,2.35199 -0.21906,0.29195 -1.35556,0.52228 -4.40061,0.89197 -4.87813,0.59225 -5.835,0.61728 -6.01151,0.15734 z m 18.26409,-5.39635 c -0.26964,-0.19726 -0.49248,-0.76414 -0.56976,-1.44965 -0.14919,-1.32473 -0.55983,-1.12217 5.19648,-2.56391 3.42456,-0.85774 3.68591,-0.89021 3.97536,-0.4942 0.42404,0.57993 0.69122,2.13464 0.4144,2.41146 -0.12424,0.12424 -1.93223,0.66682 -4.01765,1.20551 -2.08542,0.53869 -3.96355,1.03239 -4.17368,1.09705 -0.21013,0.0646 -0.58148,-0.0281 -0.82507,-0.20619 z m 18.69854,-6.16386 c -0.34537,-0.45282 -0.62797,-0.93473 -0.62797,-1.07089 0,-0.13606 0.63698,-0.79394 1.41553,-1.46173 2.65812,-2.28 3.4813,-2.84094 3.93518,-2.68071 0.68638,0.24217 1.59716,1.54373 1.42364,2.03433 -0.22378,0.63256 -4.45997,4.00215 -5.03152,4.00215 -0.26775,0 -0.76941,-0.37048 -1.11481,-0.8233 z m 11.94974,-7.88874 c -0.22169,-0.2671 -0.0588,-0.83355 0.74214,-2.58198 1.00092,-2.18494 1.08999,-2.29182 3.63549,-4.36148 1.43523,-1.16697 3.6079,-2.71039 4.82822,-3.43008 1.65048,-0.97316 2.84934,-1.95351 4.68061,-3.82749 1.35399,-1.38553 3.57455,-3.32396 4.9346,-4.30737 2.09015,-1.51163 2.68754,-2.10564 3.86085,-3.8393 3.90392,-5.76829 5.46045,-8.00799 5.8983,-8.48656 0.57362,-0.62721 2.53076,-1.4221 3.02979,-1.23057 0.4377,0.16811 1.84776,2.91685 1.84776,3.60213 0,0.65518 -1.89709,4.44894 -3.63233,7.2644 -2.77501,4.502 -10.60281,11.59488 -16.43125,14.88864 -1.76016,0.99473 -4.25273,2.4469 -5.53898,3.22705 -1.79573,1.08912 -6.89957,3.42509 -7.4832,3.42509 -0.0483,0 -0.21564,-0.15392 -0.37193,-0.34211 z m -31.53239,-7.5268 c -3.11279,-0.40069 -6.80921,-1.60535 -8.39857,-2.73718 -0.42356,-0.30162 -1.20918,-1.22361 -1.74574,-2.04886 -0.85155,-1.30965 -0.96076,-1.63711 -0.85869,-2.57486 0.23613,-2.16944 1.94072,-3.52359 5.27842,-4.19311 1.24798,-0.25032 2.53551,-0.62976 2.86116,-0.84314 1.11381,-0.7298 1.68541,-2.01085 1.75628,-3.93623 0.0357,-0.97345 0.078,-1.94729 0.0938,-2.16406 0.0158,-0.21669 0.65082,-1.35467 1.41127,-2.52861 1.25649,-1.93969 1.41732,-2.34674 1.76303,-4.46207 l 0.38041,-2.32772 -0.67267,-2.2415 c -0.65479,-2.18179 -0.66435,-2.30061 -0.35853,-4.46128 l 0.31417,-2.21975 -0.67827,-1.29549 c -0.37306,-0.71252 -1.02516,-1.65032 -1.44918,-2.084 -1.52337,-1.55813 -2.51578,-1.92215 -9.07203,-3.32738 -3.44164,-0.73769 -6.86647,-1.55348 -7.61137,-1.81289 -2.72064,-0.94765 -5.20698,-2.42916 -13.03899,-7.76897 -11.48903,-7.83358 -12.51498,-8.9139 -16.19879,-17.06006 -3.27197,-7.2355 -3.49496,-8.80989 -2.30369,-16.26892 0.43378,-2.71617 0.69192,-5.08038 0.60472,-5.53898 -0.23928,-1.25873 -0.77813,-2.13562 -1.63233,-2.65655 -1.00872,-0.61505 -2.15458,-0.61166 -3.37309,0.0105 -0.53081,0.27081 -1.25002,0.49236 -1.59826,0.49236 -1.4617,0 -3.66332,-1.37479 -4.69269,-2.93024 -0.57591,-0.87027 -0.64533,-1.36859 -1.25754,-9.02711 -0.53591,-6.70415 -0.60052,-8.38623 -0.37353,-9.72527 0.32257,-1.90337 0.0901,-3.04292 -0.84858,-4.15844 -0.34532,-0.41041 -0.85278,-0.74619 -1.12768,-0.74619 -0.87316,0 -3.21023,1.63191 -5.11846,3.57402 -3.112,3.16716 -4.08621,3.39042 -6.88932,1.57877 -0.8428,-0.54473 -1.88078,-1.05671 -2.30663,-1.13774 -2.65996,-0.50604 -6.91585,-4.24958 -8.74318,-7.69017 -0.40064,-0.75444 -1.51686,-3.34813 -2.48051,-5.76382 -2.82518,-7.08211 -4.47311,-9.92883 -7.85749,-13.57272 -2.7561,-2.96753 -3.34183,-4.02527 -3.35023,-6.04801 -0.0105,-2.2494 0.69757,-3.23677 4.79828,-6.70152 3.4876,-2.94679 6.54523,-6.39684 7.69779,-8.68592 0.66676,-1.32405 1.55077,-4.69742 1.81083,-6.91034 0.14026,-1.19418 0.093,-1.41145 -0.43108,-1.97284 -0.72972,-0.78186 -2.22649,-1.56769 -2.98592,-1.56769 -1.35557,0 -2.94548,2.072 -3.5278,4.59761 -0.71724,3.11043 -2.7075,6.39184 -4.74522,7.82387 -0.92892,0.65289 -1.27251,0.74719 -2.7251,0.74803 -1.5036,9.7e-4 -1.79211,-0.0851 -3.02375,-0.90242 -2.25315,-1.49491 -3.10123,-3.04608 -4.5695,-8.35865 -0.68773,-2.48815 -1.37017,-5.11084 -1.5166,-5.82843 -0.42953,-2.10486 -0.3246,-6.613 0.22011,-9.45315 1.30169,-6.7882 2.10254,-14.54535 2.6126,-25.30734 0.16574,-3.49995 -0.43084,-17.02512 -0.90639,-20.54424 -0.49314,-3.64915 -2.23419,-7.33953 -5.612,-11.89511 -2.36066,-3.18371 -5.04518,-5.61069 -12.18009,-11.01125 -10.46965,-7.924727 -13.41249,-9.942485 -18.33948,-12.57408 -1.57714,-0.842378 -3.9554,-3.357063 -4.82455,-5.101391 -0.53075,-1.065114 -0.62481,-1.589674 -0.62481,-3.484716 0,-2.191376 -0.0176,-2.257829 -0.995432,-3.754468 -1.264395,-1.935099 -2.839622,-3.088887 -5.303115,-3.884748 -2.283832,-0.737656 -11.621936,-5.528477 -13.639169,-6.997537 -0.766049,-0.557865 -2.75163,-2.454168 -4.41217,-4.214124 -1.66067,-1.759878 -3.701936,-3.679611 -4.536408,-4.266131 -2.909227,-2.045048 -6.773225,-3.143783 -9.411124,-2.675985 -4.092775,0.725705 -6.870935,2.525086 -14.845306,9.615736 -5.322026,4.732091 -6.340885,5.374558 -10.621463,6.69574 -3.895254,1.202328 -5.599658,2.149377 -8.981674,4.990811 -3.279053,2.755046 -5.660595,3.900508 -10.117942,4.866048 -2.691219,0.583106 -4.897304,1.358611 -8.7148114,3.063671 -4.2553618,1.900664 -5.5765438,2.170862 -10.7086662,2.190404 -4.2419662,0.01576 -4.5153957,-0.01313 -6.4007724,-0.672279 -2.480408,-0.867961 -5.030473,-2.362841 -5.839204,-3.422991 -1.167185,-1.53026 -3.109112,-5.151297 -3.268547,-6.094773 -0.202143,-1.196444 0.194027,-1.851782 1.414716,-2.340199 1.169206,-0.467825 2.379572,-0.466301 3.001158,0.0026 0.299328,0.226414 1.040923,0.361447 1.984925,0.361447 1.332424,0 1.5842625,-0.08064 2.1734098,-0.695525 0.3664902,-0.382538 0.7749534,-1.074176 0.9076757,-1.536983 0.3727152,-1.299566 0.2924462,-7.031421 -0.1201409,-8.581642 -0.7030894,-2.641839 -3.3415666,-5.446527 -5.4236756,-5.765135 -0.541606,-0.08274 -1.483243,-0.258983 -2.092511,-0.391285 -0.609293,-0.132381 -1.66771,-0.245325 -2.352045,-0.251366 -2.310361,-0.02101 -4.541924,-2.017626 -4.166057,-3.729253 0.129885,-0.591301 0.01418,-0.900978 -0.613575,-1.643729 -0.425484,-0.503336 -1.132224,-1.412535 -1.570526,-2.02041 -1.127601,-1.563907 -2.887426,-2.406022 -5.699206,-2.727204 -6.76876,-0.773036 -6.380548,-0.6473 -8.772859,-2.842248 -1.328904,-1.219323 -2.152292,-1.435755 -4.845822,-1.273693 -1.489233,0.08957 -2.21583,0.279024 -3.422203,0.892257 -1.742805,0.885875 -3.214964,1.004519 -4.952988,0.399165 -0.587729,-0.204612 -2.112526,-0.54854 -3.38832,-0.764105 -3.580587,-0.60496 -13.93545,-0.146302 -19.575558,0.867094 -2.250606,0.404366 -5.407915,0.856405 -7.016185,1.004519 -1.60827,0.14814 -3.627078,0.390445 -4.486503,0.538506 l -1.562278,0.269201 -1.377733,-0.952564 c -0.97145,-0.671649 -1.797438,-1.569659 -2.801011,-3.045023 -1.843272,-2.71013 -2.900822,-3.695107 -3.955929,-3.684863 -0.442031,0.0053 -0.97862,0.142887 -1.1924,0.307733 -0.777107,0.599549 -2.640785,3.382016 -3.076275,4.592618 -0.93691,2.605407 -3.45977,5.045707 -5.9842,5.787985 -1.46858,0.43184 -13.04056,1.607246 -15.85812,1.610739 -1.77892,0.0022 -2.64841,-0.309283 -3.54565,-1.270357 -0.79875,-0.855433 -1.35743,-2.355933 -1.17927,-3.16716 0.0841,-0.382722 1.11505,-1.784988 2.29111,-3.116203 4.04471,-4.578172 5.12792,-6.454618 4.88942,-8.469749 -0.1484,-1.253074 -0.83794,-2.795232 -1.83565,-4.105908 -0.95609,-1.255727 -5.00369,-4.758882 -5.96213,-5.159964 -1.18295,-0.495089 -1.67993,-0.982823 -2.35221,-2.30847 l -0.57572,-1.135298 0.36447,-3.542238 c 0.20046,-1.948179 0.52364,-4.040769 0.71821,-4.649878 0.19458,-0.609294 0.42654,-1.844218 0.51548,-2.744277 0.0889,-0.900032 0.25449,-1.786274 0.36788,-1.969428 0.16884,-0.272641 2.24806,-0.32801 11.47747,-0.305553 6.19931,0.01576 39.853471,0.104802 74.784683,0.199097 l 63.513922,0.17178 2.338702,2.389606 c 1.286301,1.3143 3.00326,3.310572 3.815669,4.436335 0.812382,1.125684 2.000369,2.768966 2.64,3.652031 0.662377,0.914452 1.223551,1.992016 1.303872,2.503705 0.288638,1.838702 1.64239,3.484979 4.179979,5.08353 0.864783,0.544732 0.08016,0.544706 22.77161,0.0012 16.471961,-0.394543 17.962297,-0.42966 47.021473,-1.107666 24.50044,-0.571654 30.13503,-0.702564 37.66551,-0.87521 3.18187,-0.07302 7.62818,-0.179135 9.88049,-0.23587 l 4.09514,-0.103225 4.65829,4.800645 0.13474,1.679792 c 0.0925,1.151293 0.29523,1.89675 0.6447,2.369381 0.37642,0.509167 0.49606,1.002864 0.45732,1.886822 -0.0433,0.988732 0.0904,1.419679 0.76697,2.474313 2.45527,3.826175 5.39504,5.175987 8.21076,3.769703 2.74244,-1.36959 4.71134,-3.897881 5.33963,-6.855963 0.43754,-2.06044 0.33605,-3.238078 -0.57328,-6.653714 -1.03688,-3.894729 -2.3105,-7.124139 -3.48209,-8.829594 l -0.87831,-1.278578 0.39709,-3.891052 c 0.36825,-3.608692 1.05164,-6.611163 1.68709,-7.41254 0.17283,-0.218009 0.77451,-0.301377 1.87511,-0.260034 1.66734,0.06278 3.1619,-0.230879 5.31808,-1.0451 1.73889,-0.6565459 2.10699,-0.5966593 3.19763,0.520331 0.53,0.542761 1.63259,1.332607 2.4502,1.755202 0.81764,0.422594 2.15124,1.268308 2.9636,1.879388 1.76907,1.330637 4.85896,2.849865 6.893,3.388845 0.99293,0.263133 3.2541,0.45083 6.89851,0.572573 2.98172,0.09955 5.55107,0.261347 5.70971,0.35932 0.15865,0.09797 0.91073,2.141891 1.6715,4.541924 3.03924,9.588157 3.67803,11.38922 5.34409,15.065415 0.9529,2.102676 2.31117,5.096926 3.01823,6.653977 0.70718,1.557078 4.58185,11.084271 8.61053,21.171483 4.02869,10.087211 7.97306,19.66959 8.76577,21.294407 3.59845,7.376556 10.94322,19.39748 19.77702,32.37027 3.475,5.1027 4.33101,7.00568 4.974,11.05827 1.19592,7.53888 4.8164,21.65267 6.82602,26.61013 0.46651,1.15087 2.02411,4.49779 3.46134,7.43775 3.04239,6.22348 3.05973,6.26498 5.57575,13.39306 2.30716,6.53683 3.02506,8.25436 4.46838,10.68975 0.60499,1.02081 6.01283,8.94149 12.01724,17.60193 6.00442,8.66018 11.3317,16.52134 11.83811,17.46902 1.28651,2.40697 1.83389,4.39142 2.56314,9.29188 0.34769,2.33641 2.28904,13.11568 4.3142,23.95384 2.02509,10.83816 3.80149,20.86391 3.94726,22.27912 0.20278,1.96717 0.17152,5.06751 -0.13316,13.15929 -0.21906,5.82213 -0.49604,11.27654 -0.61526,12.12073 -0.13869,0.98201 -0.85102,3.02191 -1.97726,5.66217 -1.36399,3.19763 -1.89299,4.79224 -2.3491,7.08133 -0.70256,3.52569 -1.33022,5.41027 -3.12408,9.38091 -1.58455,3.50705 -2.63843,5.18623 -6.255,9.96639 -1.47623,1.95115 -3.36704,4.66432 -4.20204,6.02937 -0.83484,1.36505 -1.69022,2.6249 -1.9008,2.7997 -0.21065,0.17467 -0.38288,0.57218 -0.38288,0.88312 0,1.332 -1.31046,2.5747 -2.71512,2.5747 -0.50047,0 -4.96901,2.27753 -12.86826,6.55863 -7.53047,4.08122 -8.17583,4.29082 -13.95804,4.53404 -4.11956,0.1731 -4.87156,0.27677 -7.87771,1.0845 -3.61788,0.97208 -6.69232,1.25363 -9.60102,0.87918 z"
       id="path963"
       style="fill:#ffffff;fill-opacity:1;stroke:#000000;stroke-width:1.04247;stroke-miterlimit:4;stroke-dasharray:none"
       inkscape:connector-curvature="0" />
  </g>
</svg>
